<?xml version="1.0" encoding="UTF-8" standalone="no"?>
<svg
   xmlns:dc="http://purl.org/dc/elements/1.1/"
   xmlns:cc="http://creativecommons.org/ns#"
   xmlns:rdf="http://www.w3.org/1999/02/22-rdf-syntax-ns#"
   xmlns:svg="http://www.w3.org/2000/svg"
   xmlns="http://www.w3.org/2000/svg"
   xmlns:sodipodi="http://sodipodi.sourceforge.net/DTD/sodipodi-0.dtd"
   xmlns:inkscape="http://www.inkscape.org/namespaces/inkscape"
   inkscape:version="1.0 (4035a4fb49, 2020-05-01)"
   sodipodi:docname="logoHyperWorks_hw.svg"
   id="svg46"
   version="1.1"
   viewBox="0 0 714 80">
  <metadata
     id="metadata52">
    <rdf:RDF>
      <cc:Work
         rdf:about="">
        <dc:format>image/svg+xml</dc:format>
        <dc:type
           rdf:resource="http://purl.org/dc/dcmitype/StillImage" />
        <dc:title></dc:title>
      </cc:Work>
    </rdf:RDF>
  </metadata>
  <defs
     id="defs50" />
  <sodipodi:namedview
     inkscape:current-layer="svg46"
     inkscape:window-maximized="0"
     inkscape:window-y="0"
     inkscape:window-x="0"
     inkscape:cy="40"
     inkscape:cx="357"
     inkscape:zoom="1.6918768"
     showgrid="false"
     id="namedview48"
     inkscape:window-height="480"
     inkscape:window-width="728"
     inkscape:pageshadow="2"
     inkscape:pageopacity="0"
     guidetolerance="10"
     gridtolerance="10"
     objecttolerance="10"
     borderopacity="1"
     bordercolor="#666666"
     pagecolor="#ffffff" />
  <g
     data-name="Altair Colors"
     id="Altair_Colors" />
  <g
     id="MIsc" />
  <g
     id="Wordmarks">
    <g
       id="g40">
      <path
         id="path4"
         fill="#393939"
         d="M23.33008,10.32422h10.22461l21.60205,50.76416h-11.59277l-4.6084-11.30518H17.6416l-4.6084,11.30518H1.72803L23.33008,10.32422Zm11.66504,29.6665l-6.69678-16.3457-6.69629,16.3457h13.39307Z" />
      <path
         id="path6"
         fill="#393939"
         d="M62.27979,8.52393h10.94482V61.08838h-10.94482V8.52393Z" />
      <path
         id="path8"
         fill="#393939"
         d="M85.31934,50.14355V31.854h-4.6084v-9.36084h4.6084V12.62842h10.94482v9.86475h9.07275v9.36084h-9.07275v16.48926c0,2.52002,1.08008,3.74414,3.52832,3.74414,2.01611,0,3.81641-.50391,5.40039-1.36768v8.78467c-2.3042,1.36816-4.96826,2.23193-8.64062,2.23193-6.69678,0-11.23291-2.66406-11.23291-11.59277Z" />
      <path
         id="path10"
         fill="#393939"
         d="M111.09424,49.99951v-.14404c0-8.4248,6.40869-12.31299,15.55322-12.31299,3.88818,0,6.69678,.64795,9.43311,1.58398v-.64795c0-4.53662-2.80859-7.05664-8.28076-7.05664-4.17676,0-7.12891,.79199-10.65723,2.08789l-2.73633-8.35254c4.24854-1.87207,8.4248-3.09619,14.97754-3.09619,5.97656,0,10.29688,1.58398,13.0332,4.32031,2.88037,2.88037,4.17627,7.12842,4.17627,12.31299v22.39404h-10.58496v-4.17627c-2.66406,2.95215-6.33643,4.89648-11.66504,4.89648-7.27246,0-13.24902-4.17676-13.24902-11.80908Zm25.12988-2.52051v-1.94385c-1.87207-.86426-4.32031-1.44043-6.98438-1.44043-4.68018,0-7.56055,1.87256-7.56055,5.32861v.14404c0,2.95215,2.44824,4.68018,5.97656,4.68018,5.1123,0,8.56836-2.80811,8.56836-6.76855Z" />
      <path
         id="path12"
         fill="#393939"
         d="M156.23779,8.52393h11.521v9.7207h-11.521V8.52393Zm.28809,13.96924h10.94482V61.08838h-10.94482V22.49316Z" />
      <path
         id="path14"
         fill="#393939"
         d="M177.76514,22.49316h10.94482v7.77637c2.23242-5.32812,5.83252-8.78467,12.31299-8.49658v11.44922h-.57568c-7.27295,0-11.7373,4.39209-11.7373,13.60889v14.25732h-10.94482V22.49316Z" />
      <path
         id="path16"
         fill="#393939"
         d="M204.20068,17.61816v-.04688c0-4.59277,3.73047-8.43994,8.46338-8.43994s8.4165,3.80029,8.4165,8.39355v.04639c0,4.59326-3.73047,8.44043-8.46289,8.44043-4.7334,0-8.41699-3.80029-8.41699-8.39355Zm15.90137-.04688v-.04639c0-4.12695-3.19434-7.46094-7.43799-7.46094-4.2666,0-7.48438,3.38086-7.48438,7.50732v.04688c0,4.12695,3.19434,7.46094,7.43799,7.46094,4.2666,0,7.48438-3.38086,7.48438-7.50781Zm-10.93555-4.73291h3.9873c1.2124,0,2.14502,.3501,2.77441,.97949,.48926,.48975,.74609,1.16553,.74609,1.9585v.04639c0,1.4458-.79297,2.35498-1.93506,2.7749l2.19189,3.21729h-2.30859l-1.91211-2.89111h-1.56201v2.89111h-1.98193V12.83838Zm3.96387,4.3833c1.00244,0,1.53906-.53613,1.53906-1.28223v-.04688c0-.8623-.60645-1.30566-1.58594-1.30566h-1.93506v2.63477h1.98193Z" />
      <path
         id="path18"
         fill="#393939"
         d="M242.35986,10.68408h11.08887V30.62988h20.44922V10.68408h11.08887V61.08838h-11.08887v-20.23389h-20.44922v20.23389h-11.08887V10.68408Z" />
      <path
         id="path20"
         fill="#393939"
         d="M321.27295,22.49316h11.37695l-14.83301,39.53125c-2.95215,7.84863-6.12012,10.80078-12.67285,10.80078-3.95996,0-6.91309-1.00781-9.7207-2.66406l3.67188-7.9209c1.44043,.86426,3.24023,1.51221,4.68066,1.51221,1.87207,0,2.87988-.57568,3.81641-2.52002l-15.12109-38.73926h11.59277l8.78516,26.28223,8.42383-26.28223Z" />
      <path
         id="path22"
         fill="#393939"
         d="M339.12646,22.49316h10.94531v5.54443c2.66406-3.60059,6.33594-6.26465,12.02441-6.26465,9.00098,0,17.56934,7.05664,17.56934,19.9458v.14404c0,12.88916-8.4248,19.9458-17.56934,19.9458-5.83203,0-9.43262-2.66455-12.02441-5.76074v16.56152h-10.94531V22.49316Zm29.59473,19.36963v-.14404c0-6.40869-4.32031-10.65674-9.43262-10.65674-5.11328,0-9.36133,4.24805-9.36133,10.65674v.14404c0,6.40869,4.24805,10.65674,9.36133,10.65674,5.1123,0,9.43262-4.17627,9.43262-10.65674Z" />
      <path
         id="path24"
         fill="#393939"
         d="M385.854,42.00684v-.14404c0-11.01709,7.84863-20.08984,19.08105-20.08984,12.88965,0,18.79395,10.00879,18.79395,20.95361,0,.86426-.07227,1.87256-.14355,2.88037h-26.8584c1.08008,4.96875,4.53613,7.56055,9.43262,7.56055,3.67188,0,6.33691-1.15186,9.36035-3.95996l6.26465,5.54443c-3.59961,4.46436-8.78418,7.20068-15.76953,7.20068-11.59277,0-20.16113-8.13672-20.16113-19.9458Zm27.21777-3.24023c-.64746-4.89648-3.52832-8.20898-8.13672-8.20898-4.53613,0-7.48828,3.24023-8.35254,8.20898h16.48926Z" />
      <path
         id="path26"
         fill="#393939"
         d="M431.86182,22.49316h10.94531v7.77637c2.23145-5.32812,5.83203-8.78467,12.3125-8.49658v11.44922h-.57617c-7.27246,0-11.73633,4.39209-11.73633,13.60889v14.25732h-10.94531V22.49316Z" />
      <path
         id="path28"
         fill="#393939"
         d="M459.22119,10.68408h11.88086l10.44141,34.13086,11.30469-34.2749h9.50488l11.30469,34.2749,10.44141-34.13086h11.59277l-17.20996,50.76416h-9.64844l-11.37695-32.97852-11.37695,32.97852h-9.64844l-17.20996-50.76416Z" />
      <path
         id="path30"
         fill="#393939"
         d="M536.18994,42.00684v-.14404c0-11.08887,8.92871-20.08984,20.9541-20.08984,11.95215,0,20.80957,8.85693,20.80957,19.9458v.14404c0,11.08887-8.92871,20.08984-20.9541,20.08984-11.95312,0-20.80957-8.85693-20.80957-19.9458Zm30.96289,0v-.14404c0-5.68848-4.10449-10.65723-10.15332-10.65723-6.26465,0-10.00879,4.82471-10.00879,10.51318v.14404c0,5.68848,4.10449,10.65674,10.15332,10.65674,6.26367,0,10.00879-4.82422,10.00879-10.5127Z" />
      <path
         id="path32"
         fill="#393939"
         d="M585.86865,22.49316h10.94531v7.77637c2.23145-5.32812,5.83203-8.78467,12.3125-8.49658v11.44922h-.57617c-7.27246,0-11.73633,4.39209-11.73633,13.60889v14.25732h-10.94531V22.49316Z" />
      <path
         id="path34"
         fill="#393939"
         d="M615.96436,8.52393h10.94531v28.01025l12.81641-14.04102h13.10547l-14.68945,15.19336,15.19336,23.40186h-12.67285l-9.86523-15.84131-3.8877,4.10449v11.73682h-10.94531V8.52393Z" />
      <path
         id="path36"
         fill="#393939"
         d="M655.56396,55.97607l4.68066-7.20068c4.17578,3.02441,8.56836,4.6084,12.16895,4.6084,3.16797,0,4.6084-1.15234,4.6084-2.88037v-.14404c0-2.37598-3.74414-3.16797-7.99316-4.46436-5.40039-1.58398-11.52051-4.10449-11.52051-11.59277v-.14404c0-7.84863,6.33691-12.24121,14.11328-12.24121,4.89648,0,10.22461,1.65625,14.40137,4.46436l-4.17676,7.56055c-3.81641-2.23193-7.63281-3.6001-10.44043-3.6001-2.66504,0-4.03223,1.15186-4.03223,2.66406v.14404c0,2.16016,3.67188,3.16846,7.84863,4.6084,5.40039,1.80029,11.66504,4.39258,11.66504,11.44922v.14404c0,8.56836-6.40918,12.45703-14.76172,12.45703-5.40039,0-11.44922-1.80029-16.56152-5.83252Z" />
      <path
         id="path38"
         fill="#393939"
         d="M691.0708,17.61816v-.04688c0-4.59277,3.73047-8.43994,8.46387-8.43994s8.41699,3.80029,8.41699,8.39355v.04639c0,4.59326-3.73047,8.44043-8.46387,8.44043-4.73242,0-8.41699-3.80029-8.41699-8.39355Zm15.90137-.04688v-.04639c0-4.12695-3.19434-7.46094-7.4375-7.46094-4.2666,0-7.48438,3.38086-7.48438,7.50732v.04688c0,4.12695,3.19434,7.46094,7.4375,7.46094,4.2666,0,7.48438-3.38086,7.48438-7.50781Zm-10.93457-4.73291h3.98633c1.21289,0,2.14551,.3501,2.77539,.97949,.48926,.48975,.74609,1.16553,.74609,1.9585v.04639c0,1.4458-.79297,2.35498-1.93555,2.7749l2.19141,3.21729h-2.30859l-1.91113-2.89111h-1.5625v2.89111h-1.98145V12.83838Zm3.96289,4.3833c1.00293,0,1.53906-.53613,1.53906-1.28223v-.04688c0-.8623-.60547-1.30566-1.58496-1.30566h-1.93555v2.63477h1.98145Z" />
    </g>
    <g
       id="g42" />
    <g
       data-name="OpenMatrix White"
       id="OpenMatrix_White" />
  </g>
</svg>
